PathFileType	4	(X/Y/Z)	/Users/itak/Documents/Research/Walk-IL/dataset/trc/00332_00011.trc
DataRate	CameraRate	NumFrames	NumMarkers	Units	OrigDataRate	OrigDataStartFrame	OrigNumFrames
100.000000	100.000000	4	54	mm	100.000000	0	605
Frame#	Time	RPSI			LPSI			L3			STRN			T10			C7			CLAV			RBAK			LBAK			LSHO			LUPA			LAEL			LAOL			LWTS			LWPS			LFRA			LIFD			LHPS			LHTS			RSHO			RUPA			RAEL			RAOL			RWTS			RWPS			RFRA			RIFD			RHTS			RHPS			RBHD			LFHD			RFHD			LBHD			LHIP			RHIP			RASI			LASI			LTHI			LANK			LTIP			LTOE			LMT1			LMT5			LHEE			RKNE			RTHI			RANK			RTIP			RTOE			RMT1			RMT5			RHEE			LKNE			*53			
		X1	Y1	Z1	X2	Y2	Z2	X3	Y3	Z3	X4	Y4	Z4	X5	Y5	Z5	X6	Y6	Z6	X7	Y7	Z7	X8	Y8	Z8	X9	Y9	Z9	X10	Y10	Z10	X11	Y11	Z11	X12	Y12	Z12	X13	Y13	Z13	X14	Y14	Z14	X15	Y15	Z15	X16	Y16	Z16	X17	Y17	Z17	X18	Y18	Z18	X19	Y19	Z19	X20	Y20	Z20	X21	Y21	Z21	X22	Y22	Z22	X23	Y23	Z23	X24	Y24	Z24	X25	Y25	Z25	X26	Y26	Z26	X27	Y27	Z27	X28	Y28	Z28	X29	Y29	Z29	X30	Y30	Z30	X31	Y31	Z31	X32	Y32	Z32	X33	Y33	Z33	X34	Y34	Z34	X35	Y35	Z35	X36	Y36	Z36	X37	Y37	Z37	X38	Y38	Z38	X39	Y39	Z39	X40	Y40	Z40	X41	Y41	Z41	X42	Y42	Z42	X43	Y43	Z43	X44	Y44	Z44	X45	Y45	Z45	X46	Y46	Z46	X47	Y47	Z47	X48	Y48	Z48	X49	Y49	Z49	X50	Y50	Z50	X51	Y51	Z51	X52	Y52	Z52	X53	Y53	Z53	X54	Y54	Z54	

1	0	872.1576538085938	973.6857299804688	236.2762298583984	874.8528442382812	972.3826293945312	108.3801879882812	871.1888427734375	1022.254028320312	176.6641845703125	1090.526123046875	1216.6142578125	163.2254028320312	852.9602661132812	1142.56103515625	167.1284027099609	882.4544677734375	1391.740234375	149.2028045654297	1041.110961914062	1339.8046875	156.9081115722656	840.0741577148438	1252.858032226562	218.9127655029297	876.325927734375	1353.269653320312	47.36552810668945	962.2947387695312	1373.650024414062	-7.67025899887085	952.6165161132812	1252.295288085938	-74.81952667236328	983.399169921875	1048.543823242188	-80.884033203125	916.5078735351562	1033.649047851562	-29.44306182861328	1081.525512695312	808.7217407226562	-20.8558177947998	1049.931030273438	796.68994140625	-81.15528869628906	1003.591430664062	945.11083984375	-83.51806640625	1088.955810546875	648.1337890625	-15.25360870361328	1048.00732421875	726.3524169921875	-75.36970520019531	1097.360717773438	730.7565307617188	-34.9860954284668	940.7548217773438	1381.341796875	312.9425964355469	932.8331909179688	1315.771362304688	377.7076416015625	955.3079223632812	1046.94140625	408.6986083984375	915.8280639648438	1040.092895507812	334.7429809570312	1070.224975585938	824.8014526367188	348.8877258300781	1041.529907226562	806.989501953125	418.03369140625	984.4002075195312	980.40478515625	415.4241027832031	1092.225463867188	651.3570556640625	355.4705200195312	1103.94384765625	724.4473266601562	359.3764953613281	1059.213745117188	723.9815063476562	413.0072021484375	921.2266235351562	1598.176879882812	233.5146636962891	1091.80712890625	1614.670043945312	115.488883972168	1082.294799804688	1614.49853515625	215.9825744628906	908.2726440429688	1593.434936523438	89.5693359375	961.4815673828125	911.65576171875	6.39820671081543	949.754638671875	917.5689697265625	346.2310180664062	1054.924926757812	945.2105712890625	305.2826843261719	1080.343994140625	939.5050048828125	65.21460723876953	986.9762573242188	594.0330200195312	15.76699352264404	883.954345703125	38.33333206176758	50.88069534301758	925.2798461914062	240.9651031494141	26.22888374328613	1090.279541015625	32.78805541992188	108.0980072021484	1021.226684570312	22.20746421813965	149.7805633544922	1009.213256835938	34.58436965942383	36.57257461547852	850.2867431640625	34.85873794555664	118.4348831176758	951.9478759765625	455.3425903320312	324.676513671875	1007.172241210938	709.9664306640625	350.3594970703125	888.7711181640625	41.26276016235352	298.4425659179688	951.4906005859375	338.3653869628906	318.4342651367188	1082.184326171875	32.82239532470703	244.8842468261719	1025.541625976562	32.13816070556641	205.3558349609375	989.3782958984375	28.35466384887695	317.1785583496094	837.6249389648438	44.31480407714844	250.5856170654297	974.6566162109375	455.8354187011719	26.66453170776367	nan	nan	nan	
2	0.01	872.1822509765625	973.6932983398438	236.2839965820312	874.8360595703125	972.3817138671875	108.3822860717773	871.17138671875	1022.25732421875	176.6703491210938	1090.490600585938	1216.641235351562	163.1947631835938	852.9783325195312	1142.546875	167.1141662597656	882.3587036132812	1391.732421875	149.1571807861328	1041.029052734375	1339.814086914062	156.8612365722656	839.9539794921875	1252.857543945312	218.8804168701172	876.298583984375	1353.256103515625	47.34605407714844	962.2498168945312	1373.646240234375	-7.706007480621338	952.6177978515625	1252.281372070312	-74.82662200927734	983.5774536132812	1048.541259765625	-80.82756805419922	916.6608276367188	1033.610473632812	-29.41789054870605	1081.81787109375	808.7814331054688	-20.63580131530762	1050.2763671875	796.7276000976562	-80.982421875	1003.829467773438	945.0986328125	-83.43477630615234	1089.40576171875	648.1759643554688	-14.96743106842041	1048.426147460938	726.4274291992188	-75.16909027099609	1097.765625	730.83349609375	-34.7679328918457	940.716064453125	1381.350463867188	312.9219665527344	932.8124389648438	1315.775268554688	377.6908569335938	955.318115234375	1046.951049804688	408.6604919433594	915.7597045898438	1040.118041992188	334.7163391113281	1070.286743164062	824.8675537109375	348.8186950683594	1041.600219726562	807.0092163085938	417.9632568359375	984.4581909179688	980.4283447265625	415.4032287597656	1092.397338867188	651.43115234375	355.3889770507812	1104.017700195312	724.4910888671875	359.3157653808594	1059.290649414062	723.9403076171875	412.9031066894531	921.0748291015625	1598.154907226562	233.4457855224609	1091.716430664062	1614.735473632812	115.4294509887695	1082.153442382812	1614.517578125	215.9501342773438	908.1383056640625	1593.400024414062	89.52932739257812	961.1844482421875	911.671875	6.329730987548828	949.7556762695312	917.58056640625	346.2301025390625	1054.907104492188	945.2105102539062	305.251708984375	1080.307495117188	939.5049438476562	65.18730926513672	986.989013671875	594.062744140625	15.77750873565674	883.9530639648438	38.33276748657227	50.88117599487305	925.2489013671875	240.9633483886719	26.2296314239502	1090.278686523438	32.78953170776367	108.0961685180664	1021.225463867188	22.20692253112793	149.7804260253906	1009.212036132812	34.58488082885742	36.57263565063477	850.2818603515625	34.84888076782227	118.4366760253906	951.9449462890625	455.3421936035156	324.6725463867188	1007.175598144531	709.9431762695312	350.3555603027344	888.7677001953125	41.26815414428711	298.4340515136719	951.4943237304688	338.3611450195312	318.4307861328125	1082.1826171875	32.82059478759766	244.8825073242188	1025.542114257812	32.13689422607422	205.3561248779297	989.3817749023438	28.36095428466797	317.1754760742188	837.6212158203125	44.31031036376953	250.5834503173828	974.614990234375	455.8364562988281	26.67101860046387	nan	nan	nan	
3	0.02	872.2088012695312	973.703369140625	236.2929840087891	874.81201171875	972.38134765625	108.384521484375	871.1441040039062	1022.262512207031	176.6781158447266	1090.446044921875	1216.676635742188	163.1536712646484	853.0009765625	1142.534790039062	167.0993041992188	882.2410278320312	1391.723266601562	149.1010894775391	1040.926513671875	1339.824584960938	156.8047637939453	839.7980346679688	1252.859252929688	218.8408508300781	876.264404296875	1353.241821289062	47.32192993164062	962.1915893554688	1373.640991210938	-7.749948501586914	952.617919921875	1252.263671875	-74.83570861816406	983.7894897460938	1048.534790039062	-80.75302124023438	916.8493041992188	1033.563720703125	-29.38069534301758	1082.183227539062	808.86181640625	-20.35280799865723	1050.7060546875	796.7716674804688	-80.75077056884766	1004.124816894531	945.081298828125	-83.32212829589844	1089.97314453125	648.247314453125	-14.60140895843506	1048.951416015625	726.5167846679688	-74.90598297119141	1098.27001953125	730.9398193359375	-34.48269653320312	940.6682739257812	1381.364013671875	312.8965454101562	932.7901611328125	1315.78076171875	377.6704711914062	955.3282470703125	1046.963500976562	408.6178588867188	915.67333984375	1040.149658203125	334.6835327148438	1070.359497070312	824.9525756835938	348.7289123535156	1041.68798828125	807.037353515625	417.8753662109375	984.5342407226562	980.4605712890625	415.3758544921875	1092.595092773438	651.5145263671875	355.2961730957031	1104.100219726562	724.5388793945312	359.2463073730469	1059.382202148438	723.8971557617188	412.7804565429688	920.8905029296875	1598.126586914062	233.3597106933594	1091.598022460938	1614.822509765625	115.3526153564453	1081.973266601562	1614.545654296875	215.9073181152344	907.9708862304688	1593.355834960938	89.48368072509766	960.82470703125	911.6912231445312	6.247823715209961	949.7487182617188	917.59619140625	346.2283020019531	1054.879028320312	945.2120971679688	305.2145690917969	1080.256103515625	939.5062866210938	65.15292358398438	986.9794921875	594.1065673828125	15.7828540802002	883.951416015625	38.33224105834961	50.88169479370117	925.2093505859375	240.9607543945312	26.23162651062012	1090.277954101562	32.79152679443359	108.0939102172852	1021.223937988281	22.20612716674805	149.7799530029297	1009.210571289062	34.58539199829102	36.57257843017578	850.2759399414062	34.83703994750977	118.4389038085938	951.941650390625	455.341552734375	324.6680908203125	1007.175231933594	709.9164428710938	350.3513793945312	888.762939453125	41.2752799987793	298.4237365722656	951.4992065429688	338.3565063476562	318.4263916015625	1082.1806640625	32.81784057617188	244.8800048828125	1025.542114257812	32.13472747802734	205.3570404052734	989.386962890625	28.37032699584961	317.1708679199219	837.6170654296875	44.30502319335938	250.5806884765625	974.5642700195312	455.8373413085938	26.67959403991699	nan	nan	nan	
4	0.03	872.2330322265625	973.7154541015625	236.3023986816406	874.7800903320312	972.3819580078125	108.3866500854492	871.1055908203125	1022.27001953125	176.6870880126953	1090.394165039062	1216.719970703125	163.1025695800781	853.0263671875	1142.52783203125	167.0859680175781	882.1078491210938	1391.713623046875	149.0377960205078	1040.808349609375	1339.835205078125	156.7422943115234	839.6126708984375	1252.8642578125	218.7967224121094	876.2242431640625	1353.228515625	47.29415512084961	962.1214599609375	1373.634033203125	-7.799857616424561	952.6161499023438	1252.242797851562	-74.84648895263672	984.0197143554688	1048.522827148438	-80.66175079345703	917.062744140625	1033.510986328125	-29.33055877685547	1082.605834960938	808.9622802734375	-20.01592254638672	1051.199829101562	796.8191528320312	-80.46268463134766	1004.462646484375	945.0588989257812	-83.18051147460938	1090.63720703125	648.3547973632812	-14.16904354095459	1049.560302734375	726.6136474609375	-74.58537292480469	1098.850219726562	731.0765380859375	-34.13584518432617	940.6141357421875	1381.382934570312	312.8675842285156	932.7687377929688	1315.788452148438	377.6476440429688	955.3364868164062	1046.977905273438	408.5748596191406	915.57275390625	1040.1865234375	334.6463623046875	1070.437622070312	825.0534057617188	348.6209106445312	1041.788696289062	807.0737915039062	417.7745361328125	984.6261596679688	980.5013427734375	415.3423461914062	1092.800903320312	651.5992431640625	355.2002258300781	1104.183715820312	724.5857543945312	359.1738891601562	1059.481811523438	723.8599853515625	412.6479797363281	920.6842041015625	1598.093017578125	233.2608032226562	1091.453857421875	1614.92919921875	115.2609710693359	1081.7607421875	1614.583862304688	215.8549652099609	907.7783813476562	1593.3046875	89.43601226806641	960.42724609375	911.7122802734375	6.158922672271729	949.7296752929688	917.6157836914062	346.2251892089844	1054.83935546875	945.2161865234375	305.1737365722656	1080.188598632812	939.5099487304688	65.11273193359375	986.9408569335938	594.1629638671875	15.78110885620117	883.9494018554688	38.33179092407227	50.88217544555664	925.1624145507812	240.9571990966797	26.23536682128906	1090.277587890625	32.79401397705078	108.0913009643555	1021.222290039062	22.20507621765137	149.779052734375	1009.208984375	34.5858154296875	36.57232666015625	850.2694091796875	34.82400512695312	118.4414215087891	951.938232421875	455.3406372070312	324.6635437011719	1007.168029785156	709.8892822265625	350.3483581542969	888.7567138671875	41.28386688232422	298.4122009277344	951.5050659179688	338.3520202636719	318.4212646484375	1082.178344726562	32.81396865844727	244.8766784667969	1025.541259765625	32.13139724731445	205.3587799072266	989.3937377929688	28.38266181945801	317.1647338867188	837.6129150390625	44.29939270019531	250.5774078369141	974.5072631835938	455.837890625	26.69004821777344	nan	nan	nan	
